PathFileType	4	(X/Y/Z)	Kaydara	
DataRate	CameraRate	NumFrames	NumMarkers	Units	OrigDataRate	OrigDataStartFrame	OrigNumFrames	
30.00	30.00	9	28	mm	30.00	32	126	
Frame#	Time	reference			Hips			Spine			Spine1			Neck			Head			Head_End			LeftShoulder			LeftArm			LeftForeArm			LeftHand			LeftHand_End			RightShoulder			RightArm			RightForeArm			RightHand			RightHand_End			LeftUpLeg			LeftLeg			LeftFoot			LeftFoot_End			RightUpLeg			RightLeg			RightFoot			RightFoot_End			Tail			Tail1			Tail1_End			
		X1	Y1	Z1	X2	Y2	Z2	X3	Y3	Z3	X4	Y4	Z4	X5	Y5	Z5	X6	Y6	Z6	X7	Y7	Z7	X8	Y8	Z8	X9	Y9	Z9	X10	Y10	Z10	X11	Y11	Z11	X12	Y12	Z12	X13	Y13	Z13	X14	Y14	Z14	X15	Y15	Z15	X16	Y16	Z16	X17	Y17	Z17	X18	Y18	Z18	X19	Y19	Z19	X20	Y20	Z20	X21	Y21	Z21	X22	Y22	Z22	X23	Y23	Z23	X24	Y24	Z24	X25	Y25	Z25	X26	Y26	Z26	X27	Y27	Z27	X28	Y28	Z28	

32	1.033	0.00000	0.00000	0.00000	222.66893	124.15973	466.68777	222.66900	124.15969	466.68780	214.78663	-65.67666	466.86373	190.49267	-287.48924	437.36885	180.12423	-427.04454	433.26291	164.37487	-591.20996	392.01156	234.41650	-261.66730	406.66154	267.48591	-307.80156	350.28747	274.46610	-200.74802	242.60836	219.03684	-229.43998	75.91000	204.02045	-271.92120	19.75085	149.02827	-253.05149	412.19593	95.67228	-284.28371	361.40164	58.03289	-167.78098	271.32161	110.13794	-239.95193	117.17752	150.65630	-223.82125	59.88825	264.25555	171.13270	378.28422	304.56796	112.66669	234.90850	275.45887	255.23025	128.94476	266.64799	271.25763	22.50468	168.71727	165.78951	382.38315	164.46524	33.46430	292.53919	152.66210	63.72917	115.49483	149.63543	25.77512	14.42887	218.14670	189.85132	446.91855	234.42259	246.55605	342.42142	249.27145	303.11677	237.63404 
33	1.067	0.00000	0.00000	0.00000	219.89487	121.02236	465.67104	219.89493	121.02232	465.67107	212.07608	-68.81637	466.04216	189.84640	-290.96076	437.42959	180.57695	-430.61261	434.04071	165.23930	-594.90149	393.12717	233.83058	-264.93109	406.98517	267.63731	-310.19442	350.34308	274.92981	-202.84903	242.97568	218.96912	-230.04577	76.20423	204.09807	-272.01867	19.62577	148.32940	-256.98543	411.72070	95.68957	-290.40735	361.57693	59.55035	-176.79944	267.28365	111.83858	-266.50291	122.70421	153.46253	-257.10988	64.71100	262.18787	167.61160	377.39965	303.85443	110.16219	234.00011	274.95222	253.45710	128.97035	266.33910	270.93390	22.74241	166.62182	162.23089	380.73030	162.71279	31.54805	288.49856	152.24494	64.57378	111.86418	150.45292	25.25374	11.29220	215.50056	186.61937	445.56183	232.68716	242.81647	340.93637	248.50846	299.39310	236.30000 
34	1.100	0.00000	0.00000	0.00000	216.87584	117.93960	464.91936	216.87590	117.93955	464.91939	209.00778	-71.89715	465.26181	189.20571	-294.38393	437.54040	180.74786	-434.09866	434.65853	165.99066	-598.48648	393.92929	233.28495	-268.09046	407.46238	267.83690	-312.54707	350.63137	275.61509	-205.05279	243.44718	219.29948	-230.57356	76.53037	204.63876	-272.37934	19.77356	147.66419	-260.93467	411.18931	95.80791	-296.43388	361.66046	62.19764	-186.57313	262.13665	112.04595	-291.89286	127.57483	153.97199	-291.51418	69.04227	259.92954	164.19409	376.83987	303.26873	107.79181	233.52043	274.69013	251.62401	129.13852	266.32873	270.72572	23.17054	164.34730	158.61936	379.26307	161.04200	29.60212	284.69243	153.08980	66.61280	108.71814	152.68572	25.06830	9.02916	212.53719	183.42871	444.44962	230.87687	238.96240	339.66581	248.04049	295.26080	235.09096 
35	1.133	0.00000	0.00000	0.00000	213.66282	114.80039	464.60705	213.66288	114.80035	464.60708	205.46426	-75.02245	464.31011	188.65238	-297.89200	437.71138	180.79400	-437.64689	435.09190	166.46344	-602.05209	394.28056	232.78568	-271.25382	408.01838	268.08825	-314.94232	351.05318	276.46228	-207.29022	244.07246	219.99075	-231.24545	76.97641	205.23794	-272.80572	20.06337	147.04631	-265.10011	410.64558	95.99703	-302.34814	361.56473	65.41771	-197.39905	255.94931	112.75550	-315.46944	131.44027	154.59963	-325.11360	73.64707	257.60184	160.72864	376.79445	302.42414	105.36705	233.52540	274.43270	249.58587	129.51851	266.48658	270.51084	23.86339	162.01511	154.87182	378.13228	159.29112	27.36187	281.52083	154.70624	67.20315	106.04539	154.90533	24.21708	6.96886	209.36547	180.16844	443.74540	229.02225	234.82077	338.73723	247.79317	290.48876	234.10107 
36	1.167	0.00000	0.00000	0.00000	210.28774	111.50024	464.56432	210.28781	111.50020	464.56435	201.75746	-78.30130	462.94450	188.09711	-301.57259	437.95874	180.85053	-441.36264	435.45356	166.49143	-605.68450	394.31791	232.22483	-274.60598	408.55534	268.33632	-317.56429	351.54188	277.24954	-209.82076	244.69685	220.65967	-232.40086	77.44942	204.92473	-272.59319	19.82145	146.38941	-269.53397	410.15720	96.14455	-308.12555	361.28474	68.31031	-209.51704	249.00989	113.62128	-336.38580	132.66893	154.00370	-356.01531	76.38450	255.35622	157.21819	377.21562	300.94329	102.86294	233.80262	273.87414	247.33941	129.90926	266.42464	269.99510	24.57539	159.77495	151.12435	377.21744	157.31805	24.42308	279.54079	156.53392	65.43382	104.27675	157.07749	21.78765	5.49053	206.12524	176.78050	443.40255	227.11420	230.36682	338.10321	247.61462	285.04533	233.27005 
37	1.200	0.00000	0.00000	0.00000	206.81347	107.58422	464.39419	206.81353	107.58418	464.39422	198.21552	-82.19804	461.43032	187.44963	-305.82983	438.32444	180.54544	-445.63922	435.93446	166.46492	-609.74241	393.84070	231.65449	-278.62160	409.26147	268.60692	-320.94437	352.31157	277.35545	-213.37601	245.27661	220.56357	-233.33651	77.76470	205.01343	-272.41412	19.32560	145.75284	-274.52963	409.67822	96.93810	-314.52779	360.48836	70.23151	-222.86398	242.21525	113.71273	-355.16351	131.35407	152.07691	-383.60279	77.47093	253.14892	153.44188	377.78475	298.55823	99.60113	234.12149	273.15509	244.62692	130.57332	266.55566	269.14939	25.60144	157.57598	147.37533	376.39744	155.87005	20.84142	278.48810	157.74501	63.68584	103.67156	158.80148	20.24558	4.79877	202.97358	172.90254	443.28896	225.07288	225.43025	337.68383	247.24513	278.95336	232.59499 
38	1.233	0.00000	0.00000	0.00000	203.30660	103.36944	464.78302	203.30666	103.36940	464.78305	194.10774	-86.35287	460.21789	186.56131	-310.27554	438.70846	180.11784	-450.10849	436.41191	165.63885	-613.87196	393.14661	230.77063	-282.70784	409.99310	268.71476	-324.55750	353.34649	276.58909	-216.66154	246.57369	220.74648	-234.80754	78.53708	205.02699	-272.55293	19.27344	144.82441	-279.74516	409.29999	97.25175	-320.96393	359.90132	71.42984	-237.31962	235.63997	114.27603	-371.59594	126.92907	149.68196	-407.76532	75.72174	250.83856	149.50456	378.97302	295.54940	96.09801	234.92912	271.47122	241.32517	131.34663	266.05522	267.78245	26.77761	155.28350	143.58438	376.30912	154.34244	17.37816	277.96745	157.86248	62.65939	103.79169	159.27873	19.82595	4.65899	199.83650	168.77717	443.89174	222.74006	220.38559	338.00510	246.23952	272.50286	232.49888 
39	1.267	0.00000	0.00000	0.00000	200.03986	98.75786	465.67638	200.03992	98.75782	465.67642	189.67089	-90.85202	459.30503	185.67605	-314.99143	439.14238	179.41666	-454.82980	436.67366	164.10958	-618.21885	392.29223	229.79848	-286.95024	410.75370	268.69659	-328.15185	354.27933	275.81146	-219.86894	247.84548	220.83047	-236.43524	79.36217	204.96928	-272.77274	19.26222	143.83140	-285.26688	409.06900	97.33909	-327.22717	359.26767	72.77299	-252.15528	229.40335	115.75099	-386.13073	120.37376	147.16778	-429.27551	72.04666	248.66639	145.22319	380.66151	292.25276	92.45385	236.03928	269.41422	237.75260	132.27660	265.32472	266.15504	28.15850	153.12046	139.73011	376.95810	152.60130	14.13607	277.83270	157.18727	61.65430	104.27877	159.01291	19.81312	4.72988	197.06628	164.30902	445.16146	220.46551	215.16553	339.01970	244.83351	265.79296	232.98640 
40	1.300	0.00000	0.00000	0.00000	197.18336	93.73762	466.95835	197.18342	93.73758	466.95838	185.28662	-95.70931	458.69145	184.82521	-319.97201	439.53434	178.51160	-459.80155	436.72686	162.10223	-622.74981	391.13522	228.82131	-291.40618	411.47456	268.58199	-331.75467	354.98494	275.27402	-223.23633	248.76365	220.64673	-237.85982	79.98572	204.95987	-272.89507	19.07227	142.86101	-291.00892	408.88998	97.34123	-333.29777	358.47196	74.85650	-266.80262	223.65040	117.87019	-399.40872	112.97327	144.58846	-448.50660	67.59125	246.77838	140.51900	382.67946	288.70327	88.63618	237.24755	267.36652	234.04014	133.31269	264.59819	264.35964	29.69288	151.22250	135.79373	378.24548	150.49871	11.27077	277.77913	156.22237	60.56724	104.75579	158.60428	19.75668	4.79166	194.86036	159.47510	446.96219	218.45467	209.77653	340.59934	243.24072	258.99138	233.99939 
